# xmcd CD database file
#
# Track frame offsets:
#	150
#	10398
#	27726
#	41148
#	59936
#	72979
#	88421
#	102025
#	115671
#	128172
#	143760
#	170057
#	179803
#	195874
#	203749
#
# Disc length: 2836 seconds
#
# Revision: 0
# Processed by: cddbd v1.5.1PL0 Copyright (c) Steve Scherf et al.
# Submitted via: CDex 1.51
#
DISCID=e50b120f
DTITLE=Brass Deluxe - Good News
DYEAR=1900
DGENRE=Jazz
TTITLE0=Crazy Rhythm
TTITLE1=Girls, Girls, Girls
TTITLE2=I Feel Good
TTITLE3=Bandiagara
TTITLE4=Don't Worry Be Happy
TTITLE5=Cap Verde Blues
TTITLE6=Why Do Fools Fall In Love
TTITLE7=Diamonds Are A Girls Best Friend
TTITLE8=Hit The Road Jack
TTITLE9=Another Day In Paradise
TTITLE10=Afro Blues
TTITLE11=Hey Hey
TTITLE12=Pata Pata
TTITLE13=Undecided
TTITLE14=Kerstin's World
EXTD=
EXTT0=
EXTT1=
EXTT2=
EXTT3=
EXTT4=
EXTT5=
EXTT6=
EXTT7=
EXTT8=
EXTT9=
EXTT10=
EXTT11=
EXTT12=
EXTT13=
EXTT14=
PLAYORDER=
